<?xml version="1.0" standalone="no"?>
<!DOCTYPE svg PUBLIC "-//W3C//DTD SVG 20010904//EN"
 "http://www.w3.org/TR/2001/REC-SVG-20010904/DTD/svg10.dtd">
<svg version="1.0" xmlns="http://www.w3.org/2000/svg"
 width="270.000000pt" height="270.000000pt" viewBox="0 0 270.000000 270.000000"
 preserveAspectRatio="xMidYMid meet">
<metadata>
Created by potrace 1.14, written by Peter Selinger 2001-2017
</metadata>
<g transform="translate(0.000000,270.000000) scale(0.100000,-0.100000)"
fill="#000000" stroke="none">
<path d="M369 2218 c-1 -7 -2 -85 -3 -173 l-1 -160 -85 -2 c-47 -1 -96 -2
-110 -2 l-25 -1 2 -147 c1 -82 2 -153 2 -159 1 -6 34 -11 89 -11 48 0 96 -1
107 -2 21 -1 21 -6 20 -298 0 -164 3 -329 8 -368 15 -133 65 -240 145 -311 45
-38 143 -83 217 -99 72 -15 275 -21 275 -7 0 4 -9 31 -21 61 -24 65 -26 149
-5 210 9 24 16 45 16 47 0 2 -15 2 -32 1 -75 -7 -160 46 -178 112 -6 20 -10
173 -10 346 l0 310 175 -1 c118 0 175 3 176 10 1 6 2 77 3 159 1 125 -1 147
-14 148 -8 0 -88 1 -177 1 l-163 0 0 174 0 174 -205 0 c-157 0 -205 -3 -206
-12z"/>
<path d="M1958 1904 c-2 -1 -33 -5 -69 -8 -36 -4 -80 -10 -97 -16 -18 -5 -34
-9 -37 -10 -9 -1 -39 -12 -80 -27 -130 -48 -267 -163 -338 -284 -63 -108 -89
-204 -93 -349 -3 -113 11 -228 30 -247 3 -3 26 -9 51 -14 65 -12 110 -36 156
-81 73 -72 84 -109 89 -289 0 -10 131 -67 195 -85 95 -26 311 -29 405 -4 111
29 213 84 286 156 54 53 102 121 92 128 -2 2 -45 28 -96 59 l-92 57 -18 -22
c-95 -118 -196 -168 -347 -174 -198 -7 -361 84 -442 247 -40 80 -54 144 -54
234 1 96 6 133 29 196 69 196 251 314 471 304 144 -6 254 -61 338 -169 l22
-28 61 39 c34 21 72 44 85 50 46 25 48 37 16 85 -85 127 -269 227 -444 243
-34 3 -74 7 -89 9 -15 2 -29 2 -30 0z"/>
<path d="M1215 823 c-70 -17 -131 -112 -122 -188 10 -77 42 -122 110 -150 100
-42 203 6 237 110 36 108 -51 236 -160 234 -25 -1 -54 -4 -65 -6z"/>
</g>
</svg>
